<svg xmlns="http://www.w3.org/2000/svg" xmlns:xlink="http://www.w3.org/1999/xlink" xmlns:lucid="lucid" width="2899.5" height="1488.5"><g transform="translate(402.5 102.5)" lucid:page-tab-id="0_0"><path d="M-500-500h3000v2000H-500z" fill="#fff"/><path d="M-380-74a6 6 0 0 1 6-6h648a6 6 0 0 1 6 6V994a6 6 0 0 1-6 6h-648a6 6 0 0 1-6-6z" fill-opacity="0"/><path d="M-343.63-80h20.25m20.25 0h20.25m20.25 0h20.25m20.25 0h20.25m20.25 0h20.25m20.25 0h20.25m20.25 0h20.25m20.25 0h20.26m20.24 0H.63m20.25 0h20.25m20.26 0h20.24m20.25 0h20.25m20.25 0h20.25m20.25 0h20.25m20.25 0h20.25m20.25 0H274l.94.07.9.22.88.35.8.5.72.6.6.72.5.8.37.88.23.9.07.95v9.9m0 19.77v19.77m0 19.78V15m0 19.78v19.78m0 19.77V94.1m0 19.8v19.77m0 19.77v19.78m0 19.78v19.78m0 19.78v19.77m0 19.78v19.8m0 19.77v19.77m0 19.78V371m0 19.78v19.78m0 19.77v19.78m0 19.8v19.77m0 19.77v19.78m0 19.78v19.78m0 19.78v19.77m0 19.78v19.8m0 19.77v19.77m0 19.78V727m0 19.78v19.78m0 19.77v19.78m0 19.8v19.77m0 19.77v19.78m0 19.78v19.78m0 19.78v19.77m0 19.78v9.9l-.07.94-.22.9-.35.88-.5.8-.6.72-.72.6-.8.5-.88.37-.9.23-.95.07h-10.13m-20.25 0h-20.25m-20.25 0h-20.25m-20.25 0h-20.25m-20.25 0h-20.25m-20.25 0H61.38m-20.24 0H20.86m-20.25 0h-20.25m-20.25 0H-60.1m-20.26 0h-20.25m-20.25 0h-20.25m-20.25 0h-20.25m-20.25 0h-20.25m-20.25 0h-20.25m-20.25 0h-20.25m-20.25 0h-20.25m-20.25 0H-374l-.94-.07-.9-.22-.88-.35-.8-.5-.72-.6-.6-.72-.5-.8-.37-.88-.23-.9-.07-.95v-9.9m0-19.77v-19.77m0-19.78V905m0-19.78v-19.78m0-19.77V825.9m0-19.8v-19.77m0-19.77v-19.78m0-19.78v-19.78m0-19.78v-19.77m0-19.78v-19.8m0-19.77v-19.77m0-19.78V549m0-19.78v-19.78m0-19.77V469.9m0-19.8v-19.77m0-19.77v-19.78m0-19.78v-19.78m0-19.78v-19.77m0-19.78v-19.8m0-19.77v-19.77m0-19.78V193m0-19.78v-19.78m0-19.77V113.9m0-19.8V74.34m0-19.77V34.78m0-19.78V-4.78m0-19.78v-19.77m0-19.78V-74l.07-.94.22-.9.35-.88.5-.8.6-.72.72-.6.8-.5.88-.37.9-.23.95-.07h10.13" stroke="#282c33" stroke-width="5" fill="none"/><path d="M560 586a6 6 0 0 1 6-6h408a6 6 0 0 1 6 6v268a6 6 0 0 1-6 6H566a6 6 0 0 1-6-6z" stroke="#282c33" stroke-width="2" fill="#6db1ff"/><use xlink:href="#a" transform="matrix(1,0,0,1,572,592) translate(63.635802469135854 116.44444444444443)"/><use xlink:href="#b" transform="matrix(1,0,0,1,572,592) translate(290.1049382716049 116.44444444444443)"/><use xlink:href="#c" transform="matrix(1,0,0,1,572,592) translate(132.47530864197535 159.1111111111111)"/><path d="M1388 46a6 6 0 0 1 6-6h408a6 6 0 0 1 6 6v268a6 6 0 0 1-6 6h-408a6 6 0 0 1-6-6z" stroke="#282c33" stroke-width="2" fill="#6db1ff"/><use xlink:href="#a" transform="matrix(1,0,0,1,1400,52) translate(19.33950617283955 132.44444444444443)"/><use xlink:href="#d" transform="matrix(1,0,0,1,1400,52) translate(245.8086419753086 132.44444444444443)"/><use xlink:href="#e" transform="matrix(1,0,0,1,1400,52) translate(298.9444444444444 132.44444444444443)"/><path d="M2056 394a6 6 0 0 1 6-6h408a6 6 0 0 1 6 6v268a6 6 0 0 1-6 6h-408a6 6 0 0 1-6-6z" stroke="#282c33" stroke-width="2" fill="#6db1ff"/><use xlink:href="#f" transform="matrix(1,0,0,1,2068,400) translate(106.84567901234571 132.44444444444443)"/><path d="M1388 626a6 6 0 0 1 6-6h408a6 6 0 0 1 6 6v268a6 6 0 0 1-6 6h-408a6 6 0 0 1-6-6z" stroke="#282c33" stroke-width="2" fill="#6db1ff"/><use xlink:href="#a" transform="matrix(1,0,0,1,1400,631.9999999999999) translate(64.57407407407413 116.44444444444443)"/><use xlink:href="#g" transform="matrix(1,0,0,1,1400,631.9999999999999) translate(291.0432098765432 116.44444444444443)"/><use xlink:href="#h" transform="matrix(1,0,0,1,1400,631.9999999999999) translate(102.94444444444447 159.1111111111111)"/><path d="M-260 586a6 6 0 0 1 6-6h408a6 6 0 0 1 6 6v268a6 6 0 0 1-6 6h-408a6 6 0 0 1-6-6z" stroke="#282c33" stroke-width="2" fill="#6db1ff"/><use xlink:href="#i" transform="matrix(1,0,0,1,-248.00000000000006,592) translate(53.70987654320993 132.44444444444443)"/><use xlink:href="#j" transform="matrix(1,0,0,1,-248.00000000000006,592) translate(171.9320987654321 132.44444444444443)"/><use xlink:href="#k" transform="matrix(1,0,0,1,-248.00000000000006,592) translate(223.19135802469134 132.44444444444443)"/><path d="M1599.97 596.26h-3.94v-7.6h3.94zm0-22.77h-3.94v-15.2h3.94zm0-30.37h-3.94v-15.18h3.94zm0-30.37h-3.94v-15.18h3.94zm0-30.36h-3.94v-15.18h3.94zm0-30.36h-3.94v-15.18h3.94zm0-30.36h-3.94V406.5h3.94zm0-60.73h-3.94v-15.18h3.94zm0-30.36h-3.94V323h3.94z" stroke="#3a414a" stroke-width=".05" fill="#3a414a"/><path d="M1599.97 323.05h-3.94V321h3.94z" fill="#3a414a"/><path stroke="#3a414a" stroke-width=".05" fill="#3a414a"/><path d="M1598 612.53l-4.63-14.27h9.27z" fill="#3a414a"/><path d="M1598 618.92l-7.35-22.63h14.7zm-1.92-18.68l1.92 5.9 1.92-5.9z" stroke="#3a414a" stroke-width=".05" fill="#3a414a"/><use xlink:href="#l" transform="matrix(1,0,0,1,1561.4166666666667,370) translate(0 16)"/><path d="M-260 46a6 6 0 0 1 6-6h408a6 6 0 0 1 6 6v268a6 6 0 0 1-6 6h-408a6 6 0 0 1-6-6z" stroke="#282c33" stroke-width="2" fill="#6db1ff"/><use xlink:href="#m" transform="matrix(1,0,0,1,-248.00000000000006,52) translate(116.6234567901235 132.44444444444443)"/><path d="M-380 935a6 6 0 0 1 6-6h272a6 6 0 0 1 6 6v66a6 6 0 0 1-6 6h-272a6 6 0 0 1-6-6z" stroke="#000" stroke-opacity="0" stroke-width="2" fill="#fff" fill-opacity="0"/><use xlink:href="#n" transform="matrix(1,0,0,1,-375,934) translate(6.2222222222222285 38.33333333333333)"/><use xlink:href="#o" transform="matrix(1,0,0,1,-375,934) translate(126.07407407407406 38.33333333333333)"/><path d="M1080 1066a6 6 0 0 1 6-6h408a6 6 0 0 1 6 6v268a6 6 0 0 1-6 6h-408a6 6 0 0 1-6-6z" stroke="#282c33" stroke-width="2" fill="#6db1ff"/><use xlink:href="#i" transform="matrix(1,0,0,1,1092,1072) translate(81.31481481481487 132.44444444444443)"/><use xlink:href="#j" transform="matrix(1,0,0,1,1092,1072) translate(199.53703703703704 132.44444444444443)"/><use xlink:href="#p" transform="matrix(1,0,0,1,1092,1072) translate(250.79629629629628 132.44444444444443)"/><path d="M1897.97 1194.08l-.1 1.17-.28 1.22-.5 1.15-.64 1.07-.82.94-.95.82-1.08.65-1.15.5-1.22.28-1.17.1h-8.4v-3.95h8.24l.7-.06.62-.15.6-.24.52-.33.48-.4.4-.5.34-.52.24-.6.15-.6.06-.7v-7.8h3.94zm-32.94 7.9h-16.65v-3.95h16.65zm-33.3 0h-16.65v-3.95h16.65zm-33.3 0h-16.64v-3.95h16.63zm-33.3 0h-16.64v-3.95h16.64zm-33.3 0h-16.64v-3.95h16.64zm-33.28 0h-16.65v-3.95h16.64zm-33.3 0h-16.65v-3.95h16.65zm-33.3 0h-16.65v-3.95h16.65zm-33.3 0H1582v-3.95h16.65zm-33.3 0h-16.64v-3.95h16.66zm-33.3 0h-8.3v-3.95h8.3zm365.92-31.6h-3.94v-15.76h3.94zm0-31.5h-3.94v-15.76h3.94zm0-31.5h-3.94v-15.76h3.94zm0-31.5h-3.94v-15.76h3.94zm0-31.5h-3.94v-15.76h3.94zm0-31.5h-3.94v-15.75h3.94zm0-31.5h-3.94v-15.75h3.94zm0-31.5h-3.94v-15.75h3.94zm0-31.5h-3.94v-15.75h3.94zm0-31.5h-3.94v-15.75h3.94zm0-31.5h-3.94v-15.75h3.94zm0-31.5h-3.94v-15.75h3.94zm0-31.5h-3.94v-15.75h3.94zm0-31.5h-3.94v-15.75h3.94zm0-31.5h-3.94v-15.75h3.94zm0-31.5h-3.94v-15.75h3.94zm0-31.5h-3.94v-15.75h3.94zm0-31.5h-3.94v-15.75h3.94zm0-31.5h-3.94v-15.75h3.94zm0-31.5h-3.94v-15.75h3.94zm0-31.5h-3.94v-15.75h3.94zm0-31.5h-3.94v-12.8h3.94zm0-36.8h-3.94v-10.45h3.94zm0-26.2h-3.94v-15.75h3.94zm0-31.5h-3.94v-15.75h3.94zm0-31.5h-3.94v-15.75h3.94zm0-31.5h-3.94v-15.75h3.94zm0-31.5h-3.94v-15.75h3.94zm0-31.5h-3.94v-15.75h3.94zm0-31.5h-3.94v-15.75h3.94zm0-31.5h-3.94v-15.75h3.94zm-6.72-47.26l1.22.3 1.15.47 1.07.64.94.82.82.95.65 1.08.5 1.15.28 1.22.1 1.17v7.96h-3.95v-7.8l-.06-.7-.15-.62-.24-.58-.33-.54-.4-.48-.5-.4-.52-.34-.6-.24-.6-.15-.7-.06h-9.8v-3.94h9.95zm-70.38 3.85H1811v-3.94h9.88zm39.5 0h-19.74v-3.94h19.74z" stroke="#000" stroke-width=".05"/><path d="M1811.05 181.97H1809v-3.94h2.05z"/><path stroke="#000" stroke-width=".05"/><path d="M1521.74 1204.63l-14.27-4.63 14.27-4.63z"/><path d="M1523.7 1207.35l-22.62-7.35 22.63-7.35zm-9.84-7.35l5.9 1.92v-3.84z" stroke="#000" stroke-width=".05"/><use xlink:href="#q" transform="matrix(1,0,0,1,1808.361111111111,472.07695690325227) translate(0 16)"/><use xlink:href="#r" transform="matrix(1,0,0,1,1808.361111111111,472.07695690325227) translate(65.44444444444444 16)"/><path d="M560 46a6 6 0 0 1 6-6h408a6 6 0 0 1 6 6v268a6 6 0 0 1-6 6H566a6 6 0 0 1-6-6z" stroke="#282c33" stroke-width="2" fill="#6db1ff"/><use xlink:href="#a" transform="matrix(1,0,0,1,572,52) translate(22.253086419753146 116.44444444444443)"/><use xlink:href="#s" transform="matrix(1,0,0,1,572,52) translate(248.7222222222222 116.44444444444443)"/><use xlink:href="#t" transform="matrix(1,0,0,1,572,52) translate(354.99382716049377 116.44444444444443)"/><use xlink:href="#u" transform="matrix(1,0,0,1,572,52) translate(127.53703703703705 159.1111111111111)"/><path d="M-48.02 556.26h-3.95v-8.85h3.95zm0-26.56h-3.95V512h3.95zm0-35.43h-3.95v-17.7h3.95zm0-68.08h-3.95v-15.9h3.95zm0-31.76h-3.95v-15.88h3.95zm0-31.75h-3.95v-15.9h3.95zm0-31.76h-3.95V323h3.95z" stroke="#3a414a" stroke-width=".05" fill="#3a414a"/><path d="M-48.02 323.05h-3.95V321h3.95z" fill="#3a414a"/><path stroke="#3a414a" stroke-width=".05" fill="#3a414a"/><path d="M-50 572.53l-4.63-14.27h9.27z" fill="#3a414a"/><path d="M-50 578.92l-7.35-22.63h14.7zm-1.92-18.68l1.92 5.9 1.92-5.9z" stroke="#3a414a" stroke-width=".05" fill="#3a414a"/><use xlink:href="#v" transform="matrix(1,0,0,1,-92.63888888888891,438) translate(0 16)"/><path d="M557 180h-8.2m-16.42 0h-16.42m-16.42 0h-16.42m-16.4 0h-16.43m-16.43 0h-16.4m-16.43 0h-16.42m-16.4 0h-15.56m-14.7 0H323.3m-14.7 0H293.9m-14.7 0h-14.68m-14.68 0h-14.7m-14.68 0h-14.7m-14.68 0h-7.34" stroke="#3a414a" stroke-width="4" fill="none"/><path d="M559 181.97h-2.05v-3.94H559z" stroke="#3a414a" stroke-width=".05" fill="#3a414a"/><path d="M167.47 180l14.27-4.63v9.26z" stroke="#3a414a" stroke-width="4" fill="#3a414a"/><path d="M557 180h-8.2m-16.42 0h-16.42m-16.42 0h-16.42m-16.4 0h-16.43m-16.43 0h-16.4m-16.43 0h-16.42m-16.4 0h-15.56m-14.7 0H323.3m-14.7 0H293.9m-14.7 0h-14.68m-14.68 0h-14.7m-14.68 0h-14.7m-14.68 0h-7.34" stroke="#3a414a" stroke-width="4" fill="none"/><path d="M559 181.97h-2.05v-3.94H559z" stroke="#3a414a" stroke-width=".05" fill="#3a414a"/><path d="M167.47 180l14.27-4.63v9.26z" stroke="#3a414a" stroke-width="4" fill="#3a414a"/><path d="M771.98 556.26H768v-8.33H772zm0-25H768v-16.65H772zm0-33.3H768v-16.67H772zm0-33.34H768V462H772zm0-33.32H768v-16.66H772zm0-33.32H768V381.3H772zm0-33.33H768V348H772zm0-33.32H768V323H772z" stroke="#3a414a" stroke-width=".05" fill="#3a414a"/><path d="M771.98 323.05H768V321H772z" fill="#3a414a"/><path stroke="#3a414a" stroke-width=".05" fill="#3a414a"/><path d="M770 572.53l-4.63-14.27h9.26z" fill="#3a414a"/><path d="M770 578.92l-7.35-22.63h14.7zm-1.92-18.68l1.92 5.9 1.92-5.9z" stroke="#3a414a" stroke-width=".05" fill="#3a414a"/><use xlink:href="#w" transform="matrix(1,0,0,1,750.5833333333334,438) translate(0 16)"/><path d="M1201.97 714.08l-.1 1.17-.28 1.22-.5 1.15-.64 1.07-.82.94-.95.82-1.08.65-1.15.5-1.22.28-1.17.1h-8V718h7.84l.7-.05.62-.15.6-.24.52-.33.48-.4.4-.5.34-.52.24-.6.15-.6.06-.7v-7.7h3.94zm-31.75 7.9h-15.86V718h15.86zm-31.7 0h-15.87V718h15.86zm-31.72 0h-15.86V718h15.86zm-31.7 0h-15.87V718h15.86zm-31.72 0h-15.86V718h15.86zm-31.7 0h-7.94V718h7.93zm190.3-31.27h-3.95V675.2h3.94zm0-31.05h-3.95v-15.53h3.94zm0-31.06h-3.95v-15.54h3.94zm0-31.07h-3.95V582h3.94zm0-31.06h-3.95v-15.53h3.94zm0-31.06h-3.95V519.9h3.94zm0-31.05h-3.95v-15.53h3.94zm0-31.06h-3.95v-15.54h3.94zm0-31.06h-3.95V426.7h3.94zm0-31.06h-3.95v-15.53h3.94zm0-31.06h-3.95V364.6h3.94zm0-31.06h-3.95v-15.53h3.94zm0-31.06h-3.95v-15.53h3.94zm0-31.06h-3.95V271.4h3.94zm0-31.06h-3.95v-15.53h3.94zm0-31.06h-3.95V209.3h3.94zm11.48-42.84h-7.38l-.7.05-.62.15-.6.24-.52.33-.48.4-.4.5-.34.53-.24.58-.15.6-.06.72v7.68h-3.94v-7.84l.1-1.17.28-1.22.5-1.15.64-1.07.82-.94.95-.82 1.08-.65 1.15-.5 1.22-.28 1.17-.1h7.54zm171.54 0h-7.46v-3.95h7.46zm-22.38 0h-14.9v-3.95h14.9zm-29.83 0h-14.92v-3.95h14.9zm-89.5 0h-14.92v-3.95h14.9zm59.66 0h-14.65v-3.95h14.66z" stroke="#000" stroke-width=".05"/><path d="M1387 181.97h-2.05v-3.94h2.05z"/><path stroke="#000" stroke-width=".05"/><path d="M1001.74 724.63L987.47 720l14.27-4.63z"/><path d="M1003.7 727.35L981.1 720l22.63-7.35zm-9.84-7.35l5.9 1.92v-3.84z" stroke="#000" stroke-width=".05"/><use xlink:href="#x" transform="matrix(1,0,0,1,1251.6944444444443,168) translate(0 16)"/><path d="M1385 761.98h-7.94V758h7.94zm-23.83 0h-15.88V758h15.87zm-31.77 0h-15.9V758h15.9zm-31.77 0h-15.9V758h15.9zm-31.77 0h-15.9V758h15.9zm-127.1 0h-15.88V758h15.9zm-31.76 0h-15.9V758h15.9zm-31.78 0h-15.88V758h15.88zm-31.77 0h-15.88V758h15.88zm-31.77 0h-7.94V758h7.94zm222.4 0h-13.52V758h13.52z" stroke="#000" stroke-width=".05"/><path d="M1387 761.98h-2.05V758h2.05z"/><path stroke="#000" stroke-width=".05"/><path d="M1001.74 764.63L987.47 760l14.27-4.63z"/><path d="M1003.7 767.35L981.1 760l22.63-7.35zm-9.84-7.35l5.9 1.92v-3.84z" stroke="#000" stroke-width=".05"/><g><use xlink:href="#y" transform="matrix(1,0,0,1,1147.4444519071308,747.9999999999999) translate(0 16)"/></g><path d="M2267.97 385h-3.94v-7.92h3.94zm0-23.75h-3.94v-15.83h3.94zm0-31.67h-3.94v-15.83h3.94zm0-31.66h-3.94v-15.84h3.94zm0-31.67h-3.94v-15.83h3.94zm0-31.67h-3.94v-15.83h3.94zm0-31.66h-3.94v-15.84h3.94zm0-63.34h-3.94v-15.83h3.94zm0-31.66h-3.94V92.08h3.94zm0-31.67h-3.94V60.42h3.94zm0-31.67h-3.94V28.75h3.94zM1611.82.98h-7.72l-.7.05-.62.15-.6.24-.52.33-.48.4-.4.5-.34.53-.24.58-.15.6-.06.72v11.18h-3.94V4.92l.1-1.17.28-1.22.5-1.15.64-1.07.82-.94.95-.82 1.08-.65 1.15-.5 1.22-.28 1.17-.1h7.9zm649.45-3.86l1.22.3 1.15.47 1.07.64.94.82.82.95.65 1.08.5 1.15.28 1.22.1 1.17v8h-3.95V5.08l-.06-.7-.15-.62-.24-.58-.33-.54-.4-.48-.5-.4-.53-.34-.58-.24-.6-.15-.72-.06h-7.73v-3.95h7.88zM2205.33.97h-15.62v-3.95h15.63zm-124.95 0h-15.62v-3.95h15.62zm-31.24 0h-15.62v-3.95h15.62zm-93.7 0h-15.63v-3.95h15.63zm-31.25 0h-15.63v-3.95h15.62zm-93.72 0h-15.62v-3.95h15.62zm-31.24 0h-15.62v-3.95h15.62zm-124.95 0h-15.63v-3.95h15.62zm562.27 0h-15.62v-3.95h15.62zm-62.48 0h-15.62v-3.95h15.6zm-31.24 0h-15.62v-3.95h15.62zm-31.24 0H2096v-3.95h15.62zm-93.7 0h-15.63v-3.95h15.6zm-31.25 0h-15.62v-3.95h15.62zm-93.72 0h-15.62v-3.95h15.62zm-31.24 0h-15.6v-3.95h15.6zm-93.7 0h-15.62v-3.95H1768zm-31.24 0h-15.62v-3.95h15.62zm-31.24 0h-15.62v-3.95h15.62zm-62.47 0h-15.62v-3.95h15.62z" stroke="#000" stroke-width=".05"/><path d="M2267.97 387h-3.94v-2.05h3.94z"/><path stroke="#000" stroke-width=".05"/><path d="M1598 32.53l-4.63-14.27h9.27z"/><path d="M1598 38.92l-7.35-22.63h14.7zm-1.92-18.68l1.92 5.9 1.92-5.9z" stroke="#000" stroke-width=".05"/><g><use xlink:href="#z" transform="matrix(1,0,0,1,2239.9444444444443,148.35079415429036) translate(0 16)"/></g><path d="M2267.97 1375.08l-.1 1.17-.28 1.22-.5 1.15-.64 1.07-.82.94-.95.82-1.08.65-1.15.5-1.22.28-1.17.1h-8.1v-3.95h7.94l.7-.06.62-.15.6-.24.52-.33.48-.4.4-.5.34-.53.24-.58.15-.6.06-.72V1367h3.94zm-32.07 7.9h-16.07v-3.95h16.07zm-32.13 0h-16.07v-3.95h16.07zm-32.14 0h-16.06v-3.95h16.06zm-32.13 0h-16.07v-3.95h16.07zm-32.13 0h-16.07v-3.95h16.07zm-32.14 0h-16.06v-3.95h16.06zm-32.13 0h-16.07v-3.95h16.07zm-32.13 0h-16.07v-3.95h16.07zm-32.14 0h-16.06v-3.95h16.06zm-32.13 0h-16.07v-3.95h16.07zm-32.13 0h-16.07v-3.95h16.07zm-32.14 0h-16.06v-3.95h16.06zm-32.13 0h-16.07v-3.95h16.07zm-32.13 0h-16.07v-3.95h16.07zm-32.14 0h-16.06v-3.95h16.06zm-32.13 0h-16.07v-3.95h16.07zm-32.13 0h-16.07v-3.95h16.07zm-32.14 0h-16.06v-3.95h16.06zm-32.13 0h-16.07v-3.95h16.07zm-32.13 0h-16.07v-3.95h16.07zm-32.14 0h-16.06v-3.95h16.06zm-32.13 0h-16.07v-3.95h16.07zm-32.13 0h-16.07v-3.95h16.07zm-32.14 0h-16.06v-3.95h16.06zm-32.13 0h-16.07v-3.95h16.07zm-32.13 0h-16.07v-3.95h16.07zm-32.14 0h-16.06v-3.95h16.06zm-32.13 0h-16.07v-3.95h16.07zm-32.13 0h-16.07v-3.95h16.07zm-44.2-8.06l.06.7.15.62.24.58.33.54.4.48.5.4.52.34.6.24.6.15.7.06h7.96v3.94h-8.1l-1.18-.1-1.22-.28-1.15-.5-1.07-.64-.94-.82-.82-.95-.65-1.08-.5-1.15-.28-1.22-.1-1.17v-11.34h3.95zm976-23.92h-3.94v-16h3.94zm0-32h-3.94v-16h3.94zm0-32h-3.94v-16h3.94zm0-32h-3.94v-16h3.94zm0-32h-3.94v-16h3.94zm0-32h-3.94v-16h3.94zm0-32h-3.94v-16h3.94zm0-32h-3.94v-16h3.94zm0-32h-3.94v-16h3.94zm0-32h-3.94v-16h3.94zm0-32h-3.94v-16h3.94zm0-32h-3.94v-16h3.94zm0-32h-3.94v-8.25h3.94zm0-32.25h-3.94V919h3.94zm0-31.75h-3.94v-16h3.94zm0-32h-3.94v-16h3.94zm0-32h-3.94v-16h3.94zm0-32h-3.94v-16h3.94zm0-32h-3.94v-16h3.94zm0-32h-3.94v-16h3.94zm0-32h-3.94v-16h3.94zm0-32h-3.94v-8h3.94z" stroke="#000" stroke-width=".05"/><path d="M2267.97 671.05h-3.94V669h3.94z"/><path stroke="#000" stroke-width=".05"/><path d="M1294.63 1361.74h-9.27l4.64-14.27z"/><path d="M1297.35 1363.7h-14.7l7.35-22.62zm-9.27-3.94h3.84l-1.92-5.9z" stroke="#000" stroke-width=".05"/><g><use xlink:href="#A" transform="matrix(1,0,0,1,2233.222222222222,934.745713842774) translate(0 15.999999999999986)"/></g><defs><path d="M67-125c0 53 21 87 73 88 37 1 54-22 65-47l45 17C233-25 199 4 140 4 58 4 20-42 15-125 8-235 124-281 211-232c18 10 29 29 36 50l-46 12c-8-25-30-41-62-41-52 0-71 34-72 86" id="B"/><path d="M110-194c64 0 96 36 96 99 0 64-35 99-97 99-61 0-95-36-95-99 0-62 34-99 96-99zm-1 164c35 0 45-28 45-65 0-40-10-65-43-65-34 0-45 26-45 65 0 36 10 65 43 65" id="C"/><path d="M220-157c-53 9-28 100-34 157h-49v-107c1-27-5-49-29-50C55-147 81-57 75 0H25l-1-190h47c2 12-1 28 3 38 10-53 101-56 108 0 13-22 24-43 59-42 82 1 51 116 57 194h-49v-107c-1-25-5-48-29-50" id="D"/><path d="M135-194c53 0 70 44 70 98 0 56-19 98-73 100-31 1-45-17-59-34 3 33 2 69 2 105H25l-1-265h48c2 10 0 23 3 31 11-24 29-35 60-35zM114-30c33 0 39-31 40-66 0-38-9-64-40-64-56 0-55 130 0 130" id="E"/><path d="M135-194c87-1 58 113 63 194h-50c-7-57 23-157-34-157-59 0-34 97-39 157H25l-1-190h47c2 12-1 28 3 38 12-26 28-41 61-42" id="F"/><path d="M185-48c-13 30-37 53-82 52C43 2 14-33 14-96s30-98 90-98c62 0 83 45 84 108H66c0 31 8 55 39 56 18 0 30-7 34-22zm-45-69c5-46-57-63-70-21-2 6-4 13-4 21h74" id="G"/><path d="M115-3C79 11 28 4 28-45v-112H4v-33h27l15-45h31v45h36v33H77v99c-1 23 16 31 38 25v30" id="H"/><g id="a"><use transform="matrix(0.0987654320987654,0,0,0.0987654320987654,0,0)" xlink:href="#B"/><use transform="matrix(0.0987654320987654,0,0,0.0987654320987654,25.58024691358024,0)" xlink:href="#C"/><use transform="matrix(0.0987654320987654,0,0,0.0987654320987654,47.20987654320986,0)" xlink:href="#D"/><use transform="matrix(0.0987654320987654,0,0,0.0987654320987654,78.81481481481478,0)" xlink:href="#E"/><use transform="matrix(0.0987654320987654,0,0,0.0987654320987654,100.4444444444444,0)" xlink:href="#C"/><use transform="matrix(0.0987654320987654,0,0,0.0987654320987654,122.074074074074,0)" xlink:href="#F"/><use transform="matrix(0.0987654320987654,0,0,0.0987654320987654,143.70370370370364,0)" xlink:href="#G"/><use transform="matrix(0.0987654320987654,0,0,0.0987654320987654,163.45679012345673,0)" xlink:href="#F"/><use transform="matrix(0.0987654320987654,0,0,0.0987654320987654,185.08641975308635,0)" xlink:href="#H"/><use transform="matrix(0.0987654320987654,0,0,0.0987654320987654,196.83950617283944,0)" xlink:href="#G"/></g><path d="M88-194c31-1 46 15 58 34l-1-101h50l1 261h-48c-2-10 0-23-3-31C134-8 116 4 84 4 32 4 16-41 15-95c0-56 19-97 73-99zm17 164c33 0 40-30 41-66 1-37-9-64-41-64s-38 30-39 65c0 43 13 65 39 65" id="I"/><g id="b"><use transform="matrix(0.0987654320987654,0,0,0.0987654320987654,0,0)" xlink:href="#I"/><use transform="matrix(0.0987654320987654,0,0,0.0987654320987654,21.629629629629623,0)" xlink:href="#C"/></g><path d="M238-95c0 69-44 99-111 99C63 4 22-25 22-93v-155h51v151c-1 38 19 59 55 60 90 1 49-130 58-211h52v153" id="J"/><path d="M137-138c1-29-70-34-71-4 15 46 118 7 119 86 1 83-164 76-172 9l43-7c4 19 20 25 44 25 33 8 57-30 24-41C81-84 22-81 20-136c-2-80 154-74 161-7" id="K"/><path d="M85 4C-2 5 27-109 22-190h50c7 57-23 150 33 157 60-5 35-97 40-157h50l1 190h-47c-2-12 1-28-3-38-12 25-28 42-61 42" id="L"/><path d="M132-34C116-15 102 5 68 4 31 3 10-16 10-54c-1-60 55-63 116-61 1-26-3-47-28-47-18 1-26 9-28 27l-52-2c7-38 36-58 82-57s74 22 75 68l1 82c-1 14 12 18 25 15v27c-30 8-71 5-69-32zm-48 3c29 0 43-24 42-57-32 0-66-3-65 30 0 17 8 27 23 27zM66-208v-5l45-51h45v8l-60 48H66" id="M"/><path d="M135-150c-39-12-60 13-60 57V0H25l-1-190h47c2 13-1 29 3 40 6-28 27-53 61-41v41" id="N"/><path d="M25-224v-37h50v37H25zM25 0v-190h50V0H25" id="O"/><g id="c"><use transform="matrix(0.0987654320987654,0,0,0.0987654320987654,0,0)" xlink:href="#J"/><use transform="matrix(0.0987654320987654,0,0,0.0987654320987654,25.58024691358024,0)" xlink:href="#K"/><use transform="matrix(0.0987654320987654,0,0,0.0987654320987654,45.333333333333314,0)" xlink:href="#L"/><use transform="matrix(0.0987654320987654,0,0,0.0987654320987654,66.96296296296293,0)" xlink:href="#M"/><use transform="matrix(0.0987654320987654,0,0,0.0987654320987654,86.71604938271601,0)" xlink:href="#N"/><use transform="matrix(0.0987654320987654,0,0,0.0987654320987654,100.54320987654316,0)" xlink:href="#O"/><use transform="matrix(0.0987654320987654,0,0,0.0987654320987654,110.41975308641969,0)" xlink:href="#C"/></g><g id="d"><use transform="matrix(0.0987654320987654,0,0,0.0987654320987654,0,0)" xlink:href="#I"/><use transform="matrix(0.0987654320987654,0,0,0.0987654320987654,21.629629629629623,0)" xlink:href="#C"/></g><path d="M114-157C55-157 80-60 75 0H25v-261h50l-1 109c12-26 28-41 61-42 86-1 58 113 63 194h-50c-7-57 23-157-34-157" id="P"/><path d="M133-34C117-15 103 5 69 4 32 3 11-16 11-54c-1-60 55-63 116-61 1-26-3-47-28-47-18 1-26 9-28 27l-52-2c7-38 36-58 82-57s74 22 75 68l1 82c-1 14 12 18 25 15v27c-30 8-71 5-69-32zm-48 3c29 0 43-24 42-57-32 0-66-3-65 30 0 17 8 27 23 27" id="Q"/><g id="e"><use transform="matrix(0.0987654320987654,0,0,0.0987654320987654,0,0)" xlink:href="#B"/><use transform="matrix(0.0987654320987654,0,0,0.0987654320987654,25.58024691358024,0)" xlink:href="#P"/><use transform="matrix(0.0987654320987654,0,0,0.0987654320987654,47.20987654320986,0)" xlink:href="#Q"/><use transform="matrix(0.0987654320987654,0,0,0.0987654320987654,66.96296296296293,0)" xlink:href="#H"/></g><path d="M25 0v-261h50V0H25" id="R"/><g id="f"><use transform="matrix(0.0987654320987654,0,0,0.0987654320987654,0,0)" xlink:href="#B"/><use transform="matrix(0.0987654320987654,0,0,0.0987654320987654,25.58024691358024,0)" xlink:href="#Q"/><use transform="matrix(0.0987654320987654,0,0,0.0987654320987654,45.333333333333314,0)" xlink:href="#R"/><use transform="matrix(0.0987654320987654,0,0,0.0987654320987654,55.209876543209845,0)" xlink:href="#G"/><use transform="matrix(0.0987654320987654,0,0,0.0987654320987654,74.96296296296293,0)" xlink:href="#F"/><use transform="matrix(0.0987654320987654,0,0,0.0987654320987654,96.59259259259255,0)" xlink:href="#I"/><use transform="matrix(0.0987654320987654,0,0,0.0987654320987654,118.22222222222219,0)" xlink:href="#M"/><use transform="matrix(0.0987654320987654,0,0,0.0987654320987654,137.97530864197526,0)" xlink:href="#N"/><use transform="matrix(0.0987654320987654,0,0,0.0987654320987654,151.80246913580243,0)" xlink:href="#O"/><use transform="matrix(0.0987654320987654,0,0,0.0987654320987654,161.67901234567896,0)" xlink:href="#C"/></g><g id="g"><use transform="matrix(0.0987654320987654,0,0,0.0987654320987654,0,0)" xlink:href="#I"/><use transform="matrix(0.0987654320987654,0,0,0.0987654320987654,21.629629629629623,0)" xlink:href="#G"/></g><path d="M175 0L67-191c6 58 2 128 3 191H24v-248h59L193-55c-6-58-2-129-3-193h46V0h-61" id="S"/><path d="M121-226c-27-7-43 5-38 36h38v33H83V0H34v-157H6v-33h28c-9-59 32-81 87-68v32" id="T"/><path d="M190-63c-7 42-38 67-86 67-59 0-84-38-90-98-12-110 154-137 174-36l-49 2c-2-19-15-32-35-32-30 0-35 28-38 64-6 74 65 87 74 30" id="U"/><path d="M190-63c-7 42-38 67-86 67-59 0-84-38-90-98-12-110 154-137 174-36l-49 2c-2-19-15-32-35-32-30 0-35 28-38 64-6 74 65 87 74 30zm-84 77c20 1 33 9 33 27 0 32-36 36-71 33V53c15 1 39 4 39-11 0-13-16-12-31-12L87 0h25" id="V"/><path d="M132-34C116-15 102 5 68 4 31 3 10-16 10-54c-1-60 55-63 116-61 1-26-3-47-28-47-18 1-26 9-28 27l-52-2c7-38 36-58 82-57s74 22 75 68l1 82c-1 14 12 18 25 15v27c-30 8-71 5-69-32zm-48 3c29 0 43-24 42-57-32 0-66-3-65 30 0 17 8 27 23 27zm82-228c-2 27-9 52-40 51-27-1-66-46-73 0H29c0-29 9-51 39-51 28 0 66 44 74 0h24" id="W"/><g id="h"><use transform="matrix(0.0987654320987654,0,0,0.0987654320987654,0,0)" xlink:href="#S"/><use transform="matrix(0.0987654320987654,0,0,0.0987654320987654,25.58024691358024,0)" xlink:href="#C"/><use transform="matrix(0.0987654320987654,0,0,0.0987654320987654,47.20987654320986,0)" xlink:href="#H"/><use transform="matrix(0.0987654320987654,0,0,0.0987654320987654,58.96296296296294,0)" xlink:href="#O"/><use transform="matrix(0.0987654320987654,0,0,0.0987654320987654,68.83950617283948,0)" xlink:href="#T"/><use transform="matrix(0.0987654320987654,0,0,0.0987654320987654,80.59259259259255,0)" xlink:href="#O"/><use transform="matrix(0.0987654320987654,0,0,0.0987654320987654,90.4691358024691,0)" xlink:href="#U"/><use transform="matrix(0.0987654320987654,0,0,0.0987654320987654,110.22222222222216,0)" xlink:href="#Q"/><use transform="matrix(0.0987654320987654,0,0,0.0987654320987654,129.97530864197526,0)" xlink:href="#V"/><use transform="matrix(0.0987654320987654,0,0,0.0987654320987654,149.72839506172835,0)" xlink:href="#W"/><use transform="matrix(0.0987654320987654,0,0,0.0987654320987654,169.48148148148144,0)" xlink:href="#C"/></g><path d="M182-130c37 4 62 22 62 59C244 23 116-4 24 0v-248c84 5 203-23 205 63 0 31-19 50-47 55zM76-148c40-3 101 13 101-30 0-44-60-28-101-31v61zm0 110c48-3 116 14 116-37 0-48-69-32-116-35v72" id="X"/><g id="i"><use transform="matrix(0.0987654320987654,0,0,0.0987654320987654,0,0)" xlink:href="#X"/><use transform="matrix(0.0987654320987654,0,0,0.0987654320987654,25.58024691358024,0)" xlink:href="#Q"/><use transform="matrix(0.0987654320987654,0,0,0.0987654320987654,45.333333333333314,0)" xlink:href="#F"/><use transform="matrix(0.0987654320987654,0,0,0.0987654320987654,66.96296296296293,0)" xlink:href="#U"/><use transform="matrix(0.0987654320987654,0,0,0.0987654320987654,86.71604938271601,0)" xlink:href="#C"/></g><g id="j"><use transform="matrix(0.0987654320987654,0,0,0.0987654320987654,0,0)" xlink:href="#I"/><use transform="matrix(0.0987654320987654,0,0,0.0987654320987654,21.629629629629623,0)" xlink:href="#G"/></g><g id="k"><use transform="matrix(0.0987654320987654,0,0,0.0987654320987654,0,0)" xlink:href="#B"/><use transform="matrix(0.0987654320987654,0,0,0.0987654320987654,25.58024691358024,0)" xlink:href="#C"/><use transform="matrix(0.0987654320987654,0,0,0.0987654320987654,47.20987654320986,0)" xlink:href="#F"/><use transform="matrix(0.0987654320987654,0,0,0.0987654320987654,68.83950617283948,0)" xlink:href="#H"/><use transform="matrix(0.0987654320987654,0,0,0.0987654320987654,80.59259259259255,0)" xlink:href="#Q"/><use transform="matrix(0.0987654320987654,0,0,0.0987654320987654,100.34567901234563,0)" xlink:href="#K"/></g><path d="M24 0v-248h52V0H24" id="Y"/><g id="l"><use transform="matrix(0.05555555555555555,0,0,0.05555555555555555,0,0)" xlink:href="#Y"/><use transform="matrix(0.05555555555555555,0,0,0.05555555555555555,5.555555555555555,0)" xlink:href="#F"/><use transform="matrix(0.05555555555555555,0,0,0.05555555555555555,17.72222222222222,0)" xlink:href="#T"/><use transform="matrix(0.05555555555555555,0,0,0.05555555555555555,24.333333333333332,0)" xlink:href="#C"/><use transform="matrix(0.05555555555555555,0,0,0.05555555555555555,36.5,0)" xlink:href="#N"/><use transform="matrix(0.05555555555555555,0,0,0.05555555555555555,44.27777777777778,0)" xlink:href="#D"/><use transform="matrix(0.05555555555555555,0,0,0.05555555555555555,62.05555555555555,0)" xlink:href="#Q"/></g><path d="M147 0H94L2-248h55l64 206c17-72 42-137 63-206h54" id="Z"/><g id="m"><use transform="matrix(0.0987654320987654,0,0,0.0987654320987654,0,0)" xlink:href="#Z"/><use transform="matrix(0.0987654320987654,0,0,0.0987654320987654,21.72839506172839,0)" xlink:href="#Q"/><use transform="matrix(0.0987654320987654,0,0,0.0987654320987654,41.48148148148147,0)" xlink:href="#R"/><use transform="matrix(0.0987654320987654,0,0,0.0987654320987654,51.358024691358004,0)" xlink:href="#O"/><use transform="matrix(0.0987654320987654,0,0,0.0987654320987654,61.234567901234534,0)" xlink:href="#I"/><use transform="matrix(0.0987654320987654,0,0,0.0987654320987654,82.86419753086416,0)" xlink:href="#Q"/><use transform="matrix(0.0987654320987654,0,0,0.0987654320987654,102.61728395061722,0)" xlink:href="#V"/><use transform="matrix(0.0987654320987654,0,0,0.0987654320987654,122.37037037037031,0)" xlink:href="#W"/><use transform="matrix(0.0987654320987654,0,0,0.0987654320987654,142.12345679012338,0)" xlink:href="#C"/></g><path d="M76-208v77h127v40H76V0H24v-248h183v40H76" id="aa"/><g id="n"><use transform="matrix(0.07407407407407407,0,0,0.07407407407407407,0,0)" xlink:href="#aa"/><use transform="matrix(0.07407407407407407,0,0,0.07407407407407407,16.22222222222222,0)" xlink:href="#O"/><use transform="matrix(0.07407407407407407,0,0,0.07407407407407407,23.629629629629623,0)" xlink:href="#N"/><use transform="matrix(0.07407407407407407,0,0,0.07407407407407407,34,0)" xlink:href="#G"/><use transform="matrix(0.07407407407407407,0,0,0.07407407407407407,48.81481481481481,0)" xlink:href="#X"/><use transform="matrix(0.07407407407407407,0,0,0.07407407407407407,68,0)" xlink:href="#Q"/><use transform="matrix(0.07407407407407407,0,0,0.07407407407407407,82.81481481481481,0)" xlink:href="#K"/><use transform="matrix(0.07407407407407407,0,0,0.07407407407407407,97.62962962962962,0)" xlink:href="#G"/></g><path d="M67-93c0 74 22 123 53 168H70C40 30 18-18 18-93s22-123 52-168h50c-32 44-53 94-53 168" id="ab"/><path d="M102-93c0 74-22 123-52 168H0C30 29 54-18 53-93c0-74-22-123-53-168h50c30 45 52 94 52 168" id="ac"/><g id="o"><use transform="matrix(0.07407407407407407,0,0,0.07407407407407407,0,0)" xlink:href="#ab"/><use transform="matrix(0.07407407407407407,0,0,0.07407407407407407,8.814814814814815,0)" xlink:href="#B"/><use transform="matrix(0.07407407407407407,0,0,0.07407407407407407,28,0)" xlink:href="#C"/><use transform="matrix(0.07407407407407407,0,0,0.07407407407407407,44.22222222222222,0)" xlink:href="#F"/><use transform="matrix(0.07407407407407407,0,0,0.07407407407407407,60.44444444444444,0)" xlink:href="#H"/><use transform="matrix(0.07407407407407407,0,0,0.07407407407407407,69.25925925925925,0)" xlink:href="#G"/><use transform="matrix(0.07407407407407407,0,0,0.07407407407407407,84.07407407407408,0)" xlink:href="#O"/><use transform="matrix(0.07407407407407407,0,0,0.07407407407407407,91.48148148148145,0)" xlink:href="#F"/><use transform="matrix(0.07407407407407407,0,0,0.07407407407407407,107.7037037037037,0)" xlink:href="#G"/><use transform="matrix(0.07407407407407407,0,0,0.07407407407407407,122.5185185185185,0)" xlink:href="#N"/><use transform="matrix(0.07407407407407407,0,0,0.07407407407407407,132.88888888888889,0)" xlink:href="#ac"/></g><g id="p"><use transform="matrix(0.0987654320987654,0,0,0.0987654320987654,0,0)" xlink:href="#Y"/><use transform="matrix(0.0987654320987654,0,0,0.0987654320987654,9.876543209876539,0)" xlink:href="#F"/><use transform="matrix(0.0987654320987654,0,0,0.0987654320987654,31.506172839506164,0)" xlink:href="#T"/><use transform="matrix(0.0987654320987654,0,0,0.0987654320987654,43.259259259259245,0)" xlink:href="#C"/></g><g id="q"><use transform="matrix(0.05555555555555555,0,0,0.05555555555555555,0,0)" xlink:href="#X"/><use transform="matrix(0.05555555555555555,0,0,0.05555555555555555,14.388888888888888,0)" xlink:href="#L"/><use transform="matrix(0.05555555555555555,0,0,0.05555555555555555,26.555555555555554,0)" xlink:href="#K"/><use transform="matrix(0.05555555555555555,0,0,0.05555555555555555,37.666666666666664,0)" xlink:href="#U"/><use transform="matrix(0.05555555555555555,0,0,0.05555555555555555,48.77777777777777,0)" xlink:href="#Q"/></g><path d="M195-6C206 82 75 100 31 46c-4-6-6-13-8-21l49-6c3 16 16 24 34 25 40 0 42-37 40-79-11 22-30 35-61 35-53 0-70-43-70-97 0-56 18-96 73-97 30 0 46 14 59 34l2-30h47zm-90-29c32 0 41-27 41-63 0-35-9-62-40-62-32 0-39 29-40 63 0 36 9 62 39 62" id="ad"/><g id="r"><use transform="matrix(0.05555555555555555,0,0,0.05555555555555555,0,0)" xlink:href="#D"/><use transform="matrix(0.05555555555555555,0,0,0.05555555555555555,17.77777777777778,0)" xlink:href="#G"/><use transform="matrix(0.05555555555555555,0,0,0.05555555555555555,28.888888888888886,0)" xlink:href="#F"/><use transform="matrix(0.05555555555555555,0,0,0.05555555555555555,41.05555555555556,0)" xlink:href="#K"/><use transform="matrix(0.05555555555555555,0,0,0.05555555555555555,52.16666666666667,0)" xlink:href="#Q"/><use transform="matrix(0.05555555555555555,0,0,0.05555555555555555,63.277777777777786,0)" xlink:href="#ad"/><use transform="matrix(0.05555555555555555,0,0,0.05555555555555555,75.44444444444446,0)" xlink:href="#G"/><use transform="matrix(0.05555555555555555,0,0,0.05555555555555555,86.55555555555557,0)" xlink:href="#F"/><use transform="matrix(0.05555555555555555,0,0,0.05555555555555555,98.72222222222224,0)" xlink:href="#K"/></g><path d="M24 0v-248h52v208h133V0H24" id="ae"/><g id="s"><use transform="matrix(0.0987654320987654,0,0,0.0987654320987654,0,0)" xlink:href="#ae"/><use transform="matrix(0.0987654320987654,0,0,0.0987654320987654,21.629629629629623,0)" xlink:href="#C"/><use transform="matrix(0.0987654320987654,0,0,0.0987654320987654,43.259259259259245,0)" xlink:href="#ad"/><use transform="matrix(0.0987654320987654,0,0,0.0987654320987654,64.88888888888887,0)" xlink:href="#O"/><use transform="matrix(0.0987654320987654,0,0,0.0987654320987654,74.76543209876542,0)" xlink:href="#F"/></g><use transform="matrix(0.0987654320987654,0,0,0.0987654320987654,0,0)" xlink:href="#G" id="t"/><path d="M240-174c0 40-23 61-54 70L253 0h-59l-57-94H76V0H24v-248c93 4 217-23 216 74zM76-134c48-2 112 12 112-38 0-48-66-32-112-35v73" id="af"/><g id="u"><use transform="matrix(0.0987654320987654,0,0,0.0987654320987654,0,0)" xlink:href="#af"/><use transform="matrix(0.0987654320987654,0,0,0.0987654320987654,25.58024691358024,0)" xlink:href="#G"/><use transform="matrix(0.0987654320987654,0,0,0.0987654320987654,45.333333333333314,0)" xlink:href="#ad"/><use transform="matrix(0.0987654320987654,0,0,0.0987654320987654,66.96296296296293,0)" xlink:href="#O"/><use transform="matrix(0.0987654320987654,0,0,0.0987654320987654,76.83950617283948,0)" xlink:href="#K"/><use transform="matrix(0.0987654320987654,0,0,0.0987654320987654,96.59259259259255,0)" xlink:href="#H"/><use transform="matrix(0.0987654320987654,0,0,0.0987654320987654,108.34567901234564,0)" xlink:href="#G"/><use transform="matrix(0.0987654320987654,0,0,0.0987654320987654,128.09876543209873,0)" xlink:href="#N"/></g><g id="v"><use transform="matrix(0.05555555555555555,0,0,0.05555555555555555,0,0)" xlink:href="#B"/><use transform="matrix(0.05555555555555555,0,0,0.05555555555555555,14.388888888888888,0)" xlink:href="#C"/><use transform="matrix(0.05555555555555555,0,0,0.05555555555555555,26.555555555555554,0)" xlink:href="#F"/><use transform="matrix(0.05555555555555555,0,0,0.05555555555555555,38.72222222222222,0)" xlink:href="#K"/><use transform="matrix(0.05555555555555555,0,0,0.05555555555555555,49.83333333333333,0)" xlink:href="#L"/><use transform="matrix(0.05555555555555555,0,0,0.05555555555555555,62,0)" xlink:href="#R"/><use transform="matrix(0.05555555555555555,0,0,0.05555555555555555,67.55555555555554,0)" xlink:href="#H"/><use transform="matrix(0.05555555555555555,0,0,0.05555555555555555,74.16666666666666,0)" xlink:href="#Q"/></g><g id="w"><use transform="matrix(0.05555555555555555,0,0,0.05555555555555555,0,0)" xlink:href="#B"/><use transform="matrix(0.05555555555555555,0,0,0.05555555555555555,14.388888888888888,0)" xlink:href="#N"/><use transform="matrix(0.05555555555555555,0,0,0.05555555555555555,22.166666666666664,0)" xlink:href="#O"/><use transform="matrix(0.05555555555555555,0,0,0.05555555555555555,27.72222222222222,0)" xlink:href="#Q"/></g><g id="x"><use transform="matrix(0.05555555555555555,0,0,0.05555555555555555,0,0)" xlink:href="#J"/><use transform="matrix(0.05555555555555555,0,0,0.05555555555555555,14.388888888888888,0)" xlink:href="#K"/><use transform="matrix(0.05555555555555555,0,0,0.05555555555555555,25.5,0)" xlink:href="#Q"/></g><g id="y"><use transform="matrix(0.05555555555555555,0,0,0.05555555555555555,0,0)" xlink:href="#S"/><use transform="matrix(0.05555555555555555,0,0,0.05555555555555555,14.388888888888888,0)" xlink:href="#C"/><use transform="matrix(0.05555555555555555,0,0,0.05555555555555555,26.555555555555554,0)" xlink:href="#H"/><use transform="matrix(0.05555555555555555,0,0,0.05555555555555555,33.166666666666664,0)" xlink:href="#O"/><use transform="matrix(0.05555555555555555,0,0,0.05555555555555555,38.72222222222222,0)" xlink:href="#T"/><use transform="matrix(0.05555555555555555,0,0,0.05555555555555555,45.33333333333333,0)" xlink:href="#O"/><use transform="matrix(0.05555555555555555,0,0,0.05555555555555555,50.888888888888886,0)" xlink:href="#U"/><use transform="matrix(0.05555555555555555,0,0,0.05555555555555555,62,0)" xlink:href="#Q"/></g><path d="M147 0L96-86 75-71V0H25v-261h50v150l67-79h53l-66 74L201 0h-54" id="ag"/><g id="z"><use transform="matrix(0.05555555555555555,0,0,0.05555555555555555,0,0)" xlink:href="#ae"/><use transform="matrix(0.05555555555555555,0,0,0.05555555555555555,12.166666666666666,0)" xlink:href="#O"/><use transform="matrix(0.05555555555555555,0,0,0.05555555555555555,17.72222222222222,0)" xlink:href="#F"/><use transform="matrix(0.05555555555555555,0,0,0.05555555555555555,29.888888888888886,0)" xlink:href="#ag"/><use transform="matrix(0.05555555555555555,0,0,0.05555555555555555,41,0)" xlink:href="#Q"/></g><path d="M24-248c93 1 206-16 204 79-1 75-69 88-152 82V0H24v-248zm52 121c47 0 100 7 100-41 0-47-54-39-100-39v80" id="ah"/><g id="A"><use transform="matrix(0.055555555555555504,0,0,0.055555555555555504,0,0)" xlink:href="#ah"/><use transform="matrix(0.055555555555555504,0,0,0.055555555555555504,13.333333333333321,0)" xlink:href="#Q"/><use transform="matrix(0.055555555555555504,0,0,0.055555555555555504,24.44444444444442,0)" xlink:href="#N"/><use transform="matrix(0.055555555555555504,0,0,0.055555555555555504,32.22222222222219,0)" xlink:href="#K"/><use transform="matrix(0.055555555555555504,0,0,0.055555555555555504,43.33333333333329,0)" xlink:href="#G"/><use transform="matrix(0.055555555555555504,0,0,0.055555555555555504,54.44444444444439,0)" xlink:href="#K"/></g></defs></g></svg>